<svg width="1332" height="759" viewBox="0 0 1332 759" fill="none" xmlns="http://www.w3.org/2000/svg">
<path d="M628 294C292 327.6 214 336.667 217 337C217 296.667 217 244.8 217 360C217 504 -76 532 217 494C488 613 272 793 493 606C714 419 498 421 716 437C900 677 722 880 908 670C1094 460 1670 606 1052 426C897.296 380.94 770.54 346.785 668 320.709M668 320.709C360.921 242.62 271.012 236.996 298 228C334 216 517 156 734 192C951 228 1276 280 1079 236C882 192 944 55 542 77C140 99 -36 -96 331 66C698 228 896 138.418 668 320.709ZM420 518C98 228 -251 210 258 236" stroke="black"/>
</svg>
